<svg xmlns="http://www.w3.org/2000/svg" viewBox="0 0 100 100" width="100" height="100">
  <!-- Background circle with gradient -->
  <defs>
    <linearGradient id="bgGradient" x1="0%" y1="0%" x2="100%" y2="100%">
      <stop offset="0%" style="stop-color:#667eea;stop-opacity:1" />
      <stop offset="100%" style="stop-color:#764ba2;stop-opacity:1" />
    </linearGradient>
    <linearGradient id="bookGradient" x1="0%" y1="0%" x2="100%" y2="100%">
      <stop offset="0%" style="stop-color:#ffffff;stop-opacity:1" />
      <stop offset="100%" style="stop-color:#f7fafc;stop-opacity:1" />
    </linearGradient>
  </defs>
  
  <!-- Background circle -->
  <circle cx="50" cy="50" r="48" fill="url(#bgGradient)" stroke="#5a67d8" stroke-width="2"/>
  
  <!-- Book icon -->
  <g transform="translate(25, 25)">
    <!-- Book cover -->
    <rect x="5" y="10" width="35" height="45" rx="2" fill="url(#bookGradient)" stroke="#4a5568" stroke-width="1"/>
    
    <!-- Book spine -->
    <rect x="5" y="10" width="4" height="45" fill="#4a5568"/>
    
    <!-- Book pages -->
    <rect x="12" y="15" width="25" height="2" fill="#4a5568" opacity="0.3"/>
    <rect x="12" y="20" width="20" height="2" fill="#4a5568" opacity="0.3"/>
    <rect x="12" y="25" width="25" height="2" fill="#4a5568" opacity="0.3"/>
    <rect x="12" y="30" width="18" height="2" fill="#4a5568" opacity="0.3"/>
    <rect x="12" y="35" width="25" height="2" fill="#4a5568" opacity="0.3"/>
    <rect x="12" y="40" width="22" height="2" fill="#4a5568" opacity="0.3"/>
    <rect x="12" y="45" width="25" height="2" fill="#4a5568" opacity="0.3"/>
    
    <!-- AI spark/star -->
    <g transform="translate(30, 18)">
      <path d="M0,-6 L1.5,-1.5 L6,0 L1.5,1.5 L0,6 L-1.5,1.5 L-6,0 L-1.5,-1.5 Z" fill="#ffd700" opacity="0.9"/>
      <circle cx="0" cy="0" r="1" fill="#ffed4e"/>
    </g>
  </g>
</svg>
